<mxfile host="app.diagrams.net" modified="2023-11-29T09:27:09.453Z" agent="Mozilla/5.0 (Windows NT 10.0; Win64; x64) AppleWebKit/537.36 (KHTML, like Gecko) Chrome/119.0.0.0 Safari/537.36" etag="bm-S7lCvrx8OvOFTv0qW" version="22.1.4" type="device">
  <diagram id="C5RBs43oDa-KdzZeNtuy" name="Page-1">
    <mxGraphModel dx="1434" dy="782" grid="1" gridSize="10" guides="1" tooltips="1" connect="1" arrows="1" fold="1" page="1" pageScale="1" pageWidth="827" pageHeight="1169" math="0" shadow="0">
      <root>
        <mxCell id="WIyWlLk6GJQsqaUBKTNV-0" />
        <mxCell id="WIyWlLk6GJQsqaUBKTNV-1" parent="WIyWlLk6GJQsqaUBKTNV-0" />
        <mxCell id="vjrnlCwvaYLgMX1R1Tcb-8" style="edgeStyle=orthogonalEdgeStyle;rounded=0;orthogonalLoop=1;jettySize=auto;html=1;entryX=1;entryY=0.5;entryDx=0;entryDy=0;" edge="1" parent="WIyWlLk6GJQsqaUBKTNV-1" source="vjrnlCwvaYLgMX1R1Tcb-1" target="vjrnlCwvaYLgMX1R1Tcb-4">
          <mxGeometry relative="1" as="geometry" />
        </mxCell>
        <mxCell id="vjrnlCwvaYLgMX1R1Tcb-1" value="IBookFactory   " style="swimlane;whiteSpace=wrap;html=1;align=center;" vertex="1" parent="WIyWlLk6GJQsqaUBKTNV-1">
          <mxGeometry x="560" y="320" width="200" height="110" as="geometry" />
        </mxCell>
        <mxCell id="vjrnlCwvaYLgMX1R1Tcb-2" value="CreateBook(title: string&lt;br style=&quot;border-color: var(--border-color);&quot;&gt;author: string&lt;br style=&quot;border-color: var(--border-color);&quot;&gt;category: string&lt;br style=&quot;border-color: var(--border-color);&quot;&gt;publishDate: string&amp;nbsp;&lt;br&gt;): Book" style="text;html=1;align=left;verticalAlign=middle;resizable=0;points=[];autosize=1;strokeColor=none;fillColor=none;" vertex="1" parent="vjrnlCwvaYLgMX1R1Tcb-1">
          <mxGeometry x="10" y="20" width="150" height="90" as="geometry" />
        </mxCell>
        <mxCell id="vjrnlCwvaYLgMX1R1Tcb-4" value="BookFactory" style="swimlane;whiteSpace=wrap;html=1;align=center;" vertex="1" parent="WIyWlLk6GJQsqaUBKTNV-1">
          <mxGeometry x="260" y="320" width="200" height="110" as="geometry" />
        </mxCell>
        <mxCell id="vjrnlCwvaYLgMX1R1Tcb-5" value="CreateBook(&lt;br&gt;title: string, &lt;br&gt;author: Author, &lt;br&gt;category: Category, &lt;br&gt;publishDate: DateTime): Book" style="text;html=1;align=left;verticalAlign=middle;resizable=0;points=[];autosize=1;strokeColor=none;fillColor=none;" vertex="1" parent="vjrnlCwvaYLgMX1R1Tcb-4">
          <mxGeometry y="20" width="180" height="90" as="geometry" />
        </mxCell>
        <mxCell id="vjrnlCwvaYLgMX1R1Tcb-9" value="Book" style="swimlane;whiteSpace=wrap;html=1;align=center;" vertex="1" parent="WIyWlLk6GJQsqaUBKTNV-1">
          <mxGeometry x="560" y="530" width="200" height="110" as="geometry" />
        </mxCell>
        <mxCell id="vjrnlCwvaYLgMX1R1Tcb-11" value="title: string&lt;br&gt;author: string&lt;br&gt;category: string&lt;br&gt;publishDate: string&amp;nbsp;" style="text;html=1;align=left;verticalAlign=middle;resizable=0;points=[];autosize=1;strokeColor=none;fillColor=none;" vertex="1" parent="vjrnlCwvaYLgMX1R1Tcb-9">
          <mxGeometry x="10" y="35" width="130" height="70" as="geometry" />
        </mxCell>
        <mxCell id="vjrnlCwvaYLgMX1R1Tcb-13" style="edgeStyle=orthogonalEdgeStyle;rounded=0;orthogonalLoop=1;jettySize=auto;html=1;exitX=0.5;exitY=0;exitDx=0;exitDy=0;entryX=0.556;entryY=1.022;entryDx=0;entryDy=0;entryPerimeter=0;" edge="1" parent="WIyWlLk6GJQsqaUBKTNV-1" source="vjrnlCwvaYLgMX1R1Tcb-9" target="vjrnlCwvaYLgMX1R1Tcb-2">
          <mxGeometry relative="1" as="geometry" />
        </mxCell>
      </root>
    </mxGraphModel>
  </diagram>
</mxfile>
